<mxfile host="app.diagrams.net" modified="2024-02-16T08:08:15.829Z" agent="Mozilla/5.0 (Windows NT 10.0; Win64; x64) AppleWebKit/537.36 (KHTML, like Gecko) Chrome/121.0.0.0 Safari/537.36 OPR/107.0.0.0" version="23.1.4" etag="6trCACwaxq5fSQ925eo2" type="github">
  <diagram name="Page-1" id="sEKLHw3KHgZP-xMYtxn7">
    <mxGraphModel>
      <root>
        <mxCell id="0" />
        <mxCell id="1" parent="0" />
      </root>
    </mxGraphModel>
  </diagram>
</mxfile>
